<?xml version="1.0" standalone="no"?>
<!DOCTYPE svg PUBLIC "-//W3C//DTD SVG 20010904//EN"
 "http://www.w3.org/TR/2001/REC-SVG-20010904/DTD/svg10.dtd">
<svg version="1.0" xmlns="http://www.w3.org/2000/svg"
 width="1106.000000pt" height="940.000000pt" viewBox="0 0 1106.000000 940.000000"
 preserveAspectRatio="xMidYMid meet">

<g transform="translate(0.000000,940.000000) scale(0.100000,-0.100000)"
fill="#000000" stroke="none">
<path d="M1766 6778 c-498 -38 -904 -438 -944 -931 -25 -308 75 -595 280 -808
55 -57 159 -142 214 -175 16 -9 11 -15 -42 -51 -70 -48 -214 -180 -214 -197 0
-6 51 -62 114 -125 121 -121 121 -121 165 -69 35 43 128 111 196 145 119 60
157 68 315 68 138 -1 149 -2 226 -32 108 -41 185 -91 264 -172 76 -78 122
-152 156 -250 89 -257 29 -516 -166 -711 -68 -69 -102 -94 -170 -128 -123 -60
-199 -75 -345 -69 -155 7 -234 32 -356 113 -36 24 -87 66 -113 94 -26 27 -52
50 -59 50 -18 0 -227 -213 -227 -231 0 -21 131 -146 209 -198 197 -134 449
-197 681 -171 137 15 227 42 355 105 563 278 745 989 386 1508 -49 71 -169
195 -239 247 l-34 25 46 33 c66 48 168 152 221 227 l46 64 91 -95 c201 -210
464 -324 747 -324 468 0 875 316 998 775 23 88 26 119 26 255 0 136 -3 167
-26 255 -97 367 -378 649 -745 747 -120 32 -328 36 -458 9 -261 -54 -456 -181
-639 -416 -15 -20 -16 -19 -48 20 -17 21 -51 60 -74 86 -24 25 -43 49 -43 52
0 3 17 11 38 17 80 26 179 129 204 212 6 21 9 40 7 42 -7 8 -950 11 -1043 4z
m284 -368 c247 -84 419 -272 471 -517 15 -74 15 -211 0 -288 -17 -82 -90 -228
-146 -294 -141 -164 -314 -244 -530 -245 -195 -1 -345 62 -485 204 -140 141
-200 285 -200 480 0 193 62 345 196 482 98 100 210 162 348 194 89 20 262 12
346 -16z m1665 15 c38 -8 112 -36 163 -61 165 -82 289 -228 349 -409 23 -69
26 -97 26 -205 0 -108 -3 -136 -26 -205 -37 -112 -90 -198 -173 -280 -116
-115 -234 -173 -406 -197 -58 -8 -99 -8 -164 1 -166 23 -284 82 -405 201 -61
61 -85 94 -123 170 -60 122 -79 213 -73 345 20 424 415 728 832 640z"/>
<path d="M5476 6782 l-446 -2 2 -1033 3 -1032 166 -3 167 -2 6 25 c3 14 6 388
6 832 0 445 0 821 0 836 l0 28 388 -3 c336 -4 394 -7 442 -22 175 -56 308
-185 376 -364 17 -43 19 -101 24 -687 l5 -640 297 -3 297 -2 258 360 c151 211
264 360 273 359 8 0 130 -161 270 -357 l255 -357 203 -3 c181 -2 202 -1 202
14 0 9 -158 237 -352 508 -194 270 -352 500 -352 511 -1 28 524 764 545 764
15 1 17 -44 22 -466 4 -414 7 -481 25 -583 62 -348 233 -587 490 -684 161 -61
159 -61 737 -61 l530 0 0 170 0 170 -480 6 c-418 5 -488 8 -540 23 -100 30
-167 68 -231 131 -107 105 -160 253 -171 473 l-6 112 495 0 c371 0 497 3 506
12 17 17 17 319 0 336 -9 9 -135 12 -505 12 l-493 0 0 305 c0 291 -1 305 -19
315 -30 16 -583 14 -603 -2 -9 -7 -125 -166 -258 -353 -133 -187 -248 -347
-256 -355 -12 -13 -16 -12 -33 5 -11 11 -128 173 -262 360 -133 187 -247 343
-253 347 -6 4 -95 8 -197 8 -149 0 -189 -3 -198 -14 -10 -12 56 -110 345 -513
196 -274 358 -505 360 -513 4 -20 -518 -745 -536 -745 -13 0 -16 66 -21 475
-7 513 -11 559 -65 712 -103 293 -331 487 -664 563 -110 25 -258 30 -754 27z"/>
<path d="M7600 4350 l0 -250 25 0 25 0 0 250 0 250 -25 0 -25 0 0 -250z"/>
<path d="M10247 4594 c-4 -4 -7 -54 -7 -111 0 -56 -3 -103 -7 -103 -5 0 -17 7
-27 15 -43 32 -126 14 -175 -39 -21 -22 -24 -35 -24 -100 0 -88 20 -125 83
-150 52 -21 68 -20 115 4 47 24 45 24 45 5 0 -9 9 -15 25 -15 l25 0 -2 248
c-3 240 -4 247 -23 250 -12 2 -24 0 -28 -4z m-33 -255 c24 -18 26 -27 26 -89
0 -63 -2 -69 -27 -86 -16 -10 -45 -18 -66 -17 -92 2 -131 123 -60 189 33 31
90 32 127 3z"/>
<path d="M3087 4554 c-8 -8 -9 -397 -1 -428 4 -19 13 -26 30 -26 l24 0 0 230
0 230 -23 0 c-13 0 -26 -3 -30 -6z"/>
<path d="M6240 4330 l0 -230 25 0 c25 0 25 0 25 95 0 93 1 95 23 95 19 0 36
-19 85 -95 55 -86 64 -95 92 -95 16 0 30 2 30 5 0 3 -27 46 -60 95 l-60 90 39
19 c66 34 89 113 53 180 -28 53 -72 71 -169 71 l-83 0 0 -230z m186 156 c21
-18 28 -32 28 -60 0 -55 -29 -79 -104 -84 l-60 -4 0 86 0 86 54 0 c43 0 61 -5
82 -24z"/>
<path d="M5190 4525 c-19 -23 -8 -50 22 -53 19 -2 28 2 33 18 12 39 -29 66
-55 35z"/>
<path d="M8360 4525 c-19 -23 -8 -50 22 -53 19 -2 28 2 33 18 12 39 -29 66
-55 35z"/>
<path d="M9220 4525 c-20 -25 -8 -50 25 -50 21 0 31 5 33 18 4 21 -14 47 -33
47 -7 0 -18 -7 -25 -15z"/>
<path d="M4960 4456 c0 -40 -2 -44 -30 -49 -41 -9 -42 -44 -2 -49 l27 -3 5
-105 c3 -58 9 -111 13 -118 24 -36 114 -51 132 -22 11 18 -8 41 -30 36 -44
-11 -60 15 -62 104 -1 45 1 88 4 96 3 9 21 14 50 14 40 0 44 2 41 23 -3 22 -7
24 -64 26 -28 1 -30 4 -29 34 1 46 -4 57 -31 57 -22 0 -24 -4 -24 -44z"/>
<path d="M8130 4455 c0 -33 -4 -45 -15 -46 -8 -1 -21 -2 -27 -3 -7 0 -14 -11
-16 -23 -3 -17 2 -22 25 -25 l28 -3 5 -105 c3 -58 9 -111 13 -118 24 -36 114
-51 132 -22 12 19 -8 41 -31 36 -16 -4 -30 0 -44 14 -18 18 -20 31 -18 108 l3
87 48 3 c39 3 47 6 47 23 0 10 -3 19 -7 20 -5 0 -24 2 -43 4 -19 1 -38 3 -42
4 -5 0 -8 21 -8 46 0 41 -2 45 -25 45 -23 0 -25 -4 -25 -45z"/>
<path d="M3257 4403 c-4 -3 -7 -73 -7 -155 l0 -148 25 0 25 0 0 109 c0 106 1
110 26 130 34 27 78 27 104 1 18 -18 20 -33 20 -131 l0 -110 27 3 27 3 0 115
c0 73 -4 123 -12 137 -28 51 -119 69 -165 33 -16 -13 -28 -16 -32 -10 -3 5 -3
10 2 10 9 0 -18 20 -28 20 -3 0 -9 -3 -12 -7z"/>
<path d="M3597 4403 c-4 -3 -7 -73 -7 -155 l0 -149 28 3 27 3 2 90 c1 50 2 98
2 107 1 28 42 58 77 58 23 0 39 -8 53 -26 18 -23 21 -41 21 -130 l0 -104 26 0
26 0 -4 126 -3 126 -33 29 c-39 35 -91 39 -139 9 -25 -15 -33 -16 -33 -6 0 8
-7 17 -16 20 -19 7 -19 7 -27 -1z"/>
<path d="M3992 4391 c-53 -34 -74 -76 -70 -146 5 -87 46 -134 129 -150 48 -9
118 21 147 63 34 47 39 112 13 164 -29 59 -63 81 -131 86 -42 2 -62 -2 -88
-17z m149 -60 c28 -28 33 -47 29 -101 -8 -110 -175 -113 -196 -4 -20 109 92
180 167 105z"/>
<path d="M4257 4403 c-6 -9 132 -303 142 -303 3 0 38 67 77 149 72 149 74 161
33 161 -6 0 -31 -45 -56 -100 -25 -55 -49 -100 -53 -100 -3 0 -26 43 -49 95
-24 52 -47 95 -51 95 -5 0 -15 3 -23 6 -8 3 -17 2 -20 -3z"/>
<path d="M4628 4399 c-29 -11 -34 -24 -20 -47 7 -10 15 -10 36 -2 51 19 102
13 125 -16 22 -27 28 -54 12 -54 -4 0 -22 5 -40 11 -42 15 -94 4 -131 -27 -25
-21 -30 -33 -30 -69 0 -36 5 -48 30 -68 44 -37 83 -43 133 -18 36 18 43 19 50
6 4 -8 17 -15 27 -15 19 0 20 8 20 120 0 118 0 120 -29 152 -26 29 -35 32 -92
35 -35 1 -76 -2 -91 -8z m143 -159 c31 -17 24 -57 -13 -80 -40 -24 -76 -25
-106 -4 -50 35 -12 94 61 94 21 0 47 -5 58 -10z"/>
<path d="M5196 4402 c-3 -3 -6 -72 -6 -154 l0 -148 25 0 26 0 -3 152 c-3 133
-5 151 -20 154 -9 1 -19 -1 -22 -4z"/>
<path d="M5392 4391 c-46 -30 -72 -77 -72 -134 0 -120 108 -196 213 -149 84
37 119 131 78 214 -29 59 -63 81 -131 86 -42 2 -62 -2 -88 -17z m149 -60 c28
-28 34 -48 29 -101 -3 -39 -19 -61 -56 -76 -110 -46 -196 99 -107 182 38 35
95 33 134 -5z"/>
<path d="M5777 4390 c-23 -19 -27 -19 -35 -4 -5 9 -18 14 -28 12 -18 -3 -19
-14 -19 -148 l0 -145 28 -3 27 -3 0 109 c0 101 2 110 23 130 30 28 80 29 107
2 18 -18 20 -33 20 -130 l0 -110 25 0 25 0 0 116 c0 126 -11 162 -57 183 -37
17 -88 13 -116 -9z"/>
<path d="M6642 4390 c-38 -23 -71 -88 -72 -138 0 -102 99 -180 195 -153 22 6
51 20 65 31 22 17 23 21 10 34 -14 14 -20 14 -58 -6 -38 -18 -48 -19 -83 -9
-27 8 -46 23 -59 44 l-20 32 123 5 122 5 -2 43 c-1 24 -9 55 -18 68 -41 62
-138 83 -203 44z m140 -50 c14 -11 28 -29 31 -40 5 -19 1 -20 -89 -20 -105 0
-116 9 -69 55 31 32 91 34 127 5z"/>
<path d="M6908 4403 c-13 -3 -4 -29 55 -154 39 -82 73 -149 77 -149 3 0 38 68
77 150 l72 150 -28 0 c-25 0 -31 -9 -70 -95 -24 -52 -47 -95 -50 -95 -4 0 -25
41 -47 91 -39 90 -55 109 -86 102z"/>
<path d="M7290 4391 c-53 -27 -82 -84 -77 -149 5 -65 28 -99 90 -130 37 -19
55 -22 87 -17 75 13 130 79 130 155 0 123 -123 199 -230 141z m143 -57 c81
-81 6 -218 -99 -184 -46 15 -69 53 -68 109 1 37 7 49 33 73 42 38 98 39 134 2z"/>
<path d="M7755 4402 c-3 -3 -5 -52 -5 -110 0 -122 14 -162 66 -187 38 -18 95
-12 115 11 15 18 29 18 29 -1 0 -9 9 -15 25 -15 l26 0 -3 153 c-3 144 -4 152
-23 152 -19 0 -20 -8 -23 -105 -3 -111 -11 -133 -59 -151 -25 -9 -73 4 -85 24
-4 7 -8 60 -8 118 0 105 0 107 -25 111 -13 3 -27 3 -30 0z"/>
<path d="M8367 4404 c-4 -4 -7 -74 -7 -156 l0 -148 25 0 26 0 -3 152 c-3 129
-5 153 -18 156 -9 1 -19 0 -23 -4z"/>
<path d="M8561 4388 c-50 -33 -73 -78 -73 -139 2 -166 217 -215 291 -66 33 66
24 124 -28 180 -35 37 -43 41 -97 45 -50 3 -65 0 -93 -20z m150 -57 c53 -53
35 -157 -32 -180 -94 -33 -172 66 -124 159 19 37 41 49 88 50 29 0 45 -7 68
-29z"/>
<path d="M8877 4403 c-16 -4 -17 -18 -15 -151 l3 -147 28 -3 27 -3 0 109 c0
101 2 110 23 130 23 22 71 29 93 14 25 -16 34 -56 34 -151 l0 -101 25 0 25 0
0 121 0 121 -34 34 c-41 41 -97 47 -139 14 -24 -19 -25 -19 -38 -1 -8 10 -22
16 -32 14z"/>
<path d="M9238 4403 c-16 -4 -18 -20 -18 -154 l0 -149 25 0 25 0 0 149 c0 83
-3 152 -7 154 -5 2 -16 2 -25 0z"/>
<path d="M9372 4402 c-13 -4 -17 -41 -4 -43 4 -1 39 -2 77 -3 46 -2 69 -6 68
-13 -2 -7 -34 -57 -73 -113 -39 -55 -73 -107 -76 -115 -5 -13 13 -15 120 -15
l126 0 0 25 c0 25 -1 25 -80 25 -44 0 -80 2 -80 5 0 2 36 56 80 119 44 63 80
118 80 123 0 8 -215 13 -238 5z"/>
<path d="M9730 4388 c-111 -76 -84 -252 44 -288 49 -14 105 -2 146 30 23 17
24 20 9 35 -15 15 -19 14 -58 -6 -37 -19 -47 -20 -81 -10 -35 10 -80 51 -80
72 0 5 55 10 123 11 117 3 122 4 125 25 5 37 -33 111 -70 133 -46 28 -115 27
-158 -2z m145 -53 c47 -46 36 -55 -70 -55 l-96 0 16 30 c19 37 41 49 88 50 27
0 45 -7 62 -25z"/>
</g>
</svg>
